<svg width="105" height="64" viewBox="0 0 105 64" fill="none" xmlns="http://www.w3.org/2000/svg">
<g clip-path="url(#clip0_29:14)">
<path d="M7.50715 61.3292V63.647H2.28161H0V61.3292V50.1484H2.28161V61.3292H7.50715Z" fill="white"/>
<path fill-rule="evenodd" clip-rule="evenodd" d="M14.5013 49.8413C15.4507 49.8413 16.3502 50.0241 17.1925 50.3936C18.0346 50.7591 18.7697 51.2608 19.3975 51.8986C20.0215 52.5364 20.5154 53.283 20.879 54.1386C21.2389 54.9942 21.4188 55.9042 21.4188 56.8687C21.4188 57.8331 21.2389 58.7471 20.879 59.6026C20.5154 60.4582 20.0215 61.2049 19.3975 61.8388C18.7697 62.4765 18.0346 62.9782 17.1925 63.3477C16.3502 63.7132 15.4507 63.896 14.5013 63.896C13.5518 63.896 12.6561 63.7132 11.8138 63.3477C10.9716 62.9782 10.2366 62.4765 9.60882 61.8388C8.98099 61.2049 8.48714 60.4582 8.12727 59.6026C7.76362 58.7471 7.58365 57.8331 7.58365 56.8687C7.58365 55.9042 7.76362 54.9942 8.12727 54.1386C8.48714 53.283 8.98099 52.5364 9.60882 51.8986C10.2366 51.2608 10.9716 50.7591 11.8138 50.3936C12.6561 50.0241 13.5518 49.8413 14.5013 49.8413ZM14.5013 52.1591C13.8811 52.1591 13.2915 52.2758 12.7364 52.5169C12.1775 52.7542 11.676 53.0963 11.232 53.5475C10.7879 53.9986 10.451 54.5081 10.2175 55.072C9.9801 55.6397 9.8653 56.2387 9.8653 56.8687C9.8653 57.4987 9.9801 58.1014 10.2175 58.6732C10.451 59.2487 10.7879 59.7582 11.232 60.2093C11.676 60.6604 12.1775 60.9987 12.7364 61.2321C13.2915 61.4654 13.8811 61.5782 14.5013 61.5782C15.1214 61.5782 15.7148 61.4654 16.2775 61.2321C16.8441 60.9987 17.3456 60.6604 17.7896 60.2093C18.2337 59.7582 18.5706 59.2487 18.7965 58.6732C19.0262 58.1014 19.141 57.4987 19.141 56.8687C19.141 56.2387 19.0262 55.6397 18.7965 55.072C18.5706 54.5081 18.2337 53.9986 17.7896 53.5475C17.3456 53.0963 16.8441 52.7542 16.2775 52.5169C15.7148 52.2758 15.1214 52.1591 14.5013 52.1591Z" fill="white"/>
<path d="M27.9191 56.888L32.9762 63.647H30.1242L26.495 58.8013L22.8659 63.647H20.0139L25.0671 56.888L20.0139 50.1328H22.8659L26.495 54.9785L30.1242 50.1328H32.9762L27.9191 56.888Z" fill="white"/>
<path d="M47.7224 50.1133V63.6274H45.2531L39.9128 54.3795V63.6274H37.6312V50.1133H40.1004L45.4407 59.3574V50.1133H47.7224Z" fill="white"/>
<path fill-rule="evenodd" clip-rule="evenodd" d="M51.2941 59.9756C51.4205 60.2751 51.6042 60.5356 51.8454 60.769C52.1134 61.0373 52.4082 61.2434 52.7411 61.3756C53.0704 61.5118 53.4187 61.5779 53.7862 61.5779C54.3031 61.5779 54.7663 61.4574 55.1721 61.2123L57.5494 62.1768C57.09 62.7174 56.5388 63.1413 55.8956 63.4446C55.2487 63.744 54.5443 63.8957 53.7862 63.8957C53.0895 63.8957 52.4349 63.7635 51.8262 63.499C51.2175 63.2385 50.6855 62.8729 50.2299 62.4101C49.7743 61.9473 49.4183 61.4067 49.158 60.7884C48.8977 60.17 48.7675 59.5128 48.7675 58.8167C48.7675 58.1128 48.8977 57.4477 49.158 56.8294C49.4183 56.2111 49.7743 55.6705 50.2299 55.2078C50.6855 54.745 51.2175 54.3833 51.8262 54.1188C52.4349 53.8544 53.0895 53.7222 53.7862 53.7222C54.483 53.7222 55.1338 53.8544 55.7425 54.1188C56.3512 54.3833 56.8833 54.745 57.3389 55.2078C57.7944 55.6705 58.1542 56.2111 58.4107 56.8294C58.6711 57.4477 58.8013 58.1128 58.8013 58.8167C58.8013 59.2289 58.7591 59.6178 58.6673 59.9756H51.2941ZM53.7862 56.04C53.0512 56.04 52.4043 56.3083 51.8454 56.8489C51.6042 57.0939 51.4205 57.3661 51.2941 57.6617H56.2746C56.1483 57.3661 55.9645 57.0939 55.7234 56.8489C55.1912 56.3083 54.5443 56.04 53.7862 56.04Z" fill="white"/>
<path d="M64.8651 63.6471H62.7749C62.3423 63.6471 61.9365 63.5614 61.5575 63.3943C61.1785 63.227 60.8493 62.9975 60.5699 62.7098C60.2904 62.4181 60.0684 62.0837 59.9038 61.6948C59.7391 61.3098 59.6588 60.8976 59.6588 60.462V52.0424L61.9365 51.4629V55.1496H63.2687L63.8391 57.4674H61.9365V60.462C61.9365 60.7031 62.0208 60.9092 62.1853 61.0764C62.35 61.2436 62.5452 61.3292 62.7749 61.3292H64.2947L64.8651 63.6471Z" fill="white"/>
<path d="M79.3282 53.9907L76.1159 63.6471H73.7009L71.687 57.4286L69.6733 63.6471H67.2769L64.065 53.9907H66.4614L68.475 60.2287L70.4886 53.9907H72.9043L74.9182 60.2287L76.9314 53.9907H79.3282Z" fill="white"/>
<path fill-rule="evenodd" clip-rule="evenodd" d="M84.2317 53.7222C84.9247 53.7222 85.5792 53.8544 86.1882 54.1188C86.7972 54.3833 87.3292 54.745 87.7849 55.2078C88.2399 55.6705 88.5962 56.2111 88.8566 56.8294C89.117 57.4477 89.2472 58.1128 89.2472 58.8167C89.2472 59.5128 89.117 60.17 88.8566 60.7884C88.5962 61.4067 88.2399 61.9473 87.7849 62.4101C87.3292 62.8729 86.7972 63.2385 86.1882 63.499C85.5792 63.7635 84.9247 63.8957 84.2317 63.8957C83.5317 63.8957 82.8807 63.7635 82.2717 63.499C81.6634 63.2385 81.1314 62.8729 80.6757 62.4101C80.22 61.9473 79.8602 61.4067 79.604 60.7884C79.3436 60.17 79.2134 59.5128 79.2134 58.8167C79.2134 58.1128 79.3436 57.4477 79.604 56.8294C79.8602 56.2111 80.22 55.6705 80.6757 55.2078C81.1314 54.745 81.6634 54.3833 82.2717 54.1188C82.8807 53.8544 83.5317 53.7222 84.2317 53.7222ZM84.2317 56.04C83.4701 56.04 82.8233 56.3083 82.2913 56.8489C81.7593 57.3894 81.4947 58.0466 81.4947 58.8167C81.4947 59.5789 81.7593 60.2284 82.2913 60.769C82.544 61.0373 82.8387 61.2434 83.1754 61.3756C83.5121 61.5118 83.8607 61.5779 84.2317 61.5779C84.5957 61.5779 84.9443 61.5118 85.2733 61.3756C85.6065 61.2434 85.9012 61.0373 86.1693 60.769C86.7013 60.2284 86.9652 59.5789 86.9652 58.8167C86.9652 58.0466 86.7013 57.3894 86.1693 56.8489C85.61 56.3083 84.9632 56.04 84.2317 56.04Z" fill="white"/>
<path d="M93.7797 53.9904C94.2312 53.7998 94.7401 53.7026 95.3106 53.7026V56.0205C94.549 56.0205 93.9022 56.2888 93.3702 56.8294C92.8375 57.3971 92.5736 58.0544 92.5736 58.8011V63.6467H90.2923V58.8011V53.971H92.5736V54.7254C92.9257 54.4299 93.3317 54.1849 93.7797 53.9904Z" fill="white"/>
<path d="M100.249 58.8169L105 63.647H101.792L98.6335 60.4425V63.647H96.3557V50.1328H98.6335V57.1796L101.773 53.9907H105L100.249 58.8169Z" fill="white"/>
<path d="M74.1062 18.4376C74.1062 18.4376 74.1062 18.4376 74.1062 18.4415C72.4983 18.3209 70.8603 18.6243 69.3594 19.3437C67.1888 20.3977 64.9034 22.3772 64.1071 26.0872C62.4303 33.8652 61.5422 39.4419 55.2295 39.4419C55.0955 39.4419 54.9807 39.4497 54.8774 39.4653H38.0524C37.8916 39.3253 37.7308 39.1853 37.5777 39.0375C37.2599 38.7458 36.946 38.4425 36.6474 38.1313C36.6436 38.1313 36.6436 38.1313 36.6436 38.1275C36.4216 37.8941 36.1995 37.6608 35.9851 37.4197C35.3573 36.7041 34.7677 35.9497 34.2241 35.1563C32.7503 32.9979 31.6439 30.5518 30.9893 27.9267C30.5491 26.165 30.3155 24.3216 30.3155 22.4199C30.3155 20.3044 30.6065 18.2549 31.1424 16.3182C31.2381 15.9798 31.3415 15.6453 31.4525 15.3109C31.6898 14.5836 31.9655 13.8719 32.2756 13.1797C32.3254 13.0709 32.3751 12.9581 32.4249 12.8453C32.4555 12.7831 32.4862 12.7169 32.5129 12.6547C32.5359 12.6119 32.5512 12.5731 32.5742 12.5342C33.3015 11.033 34.1858 9.62908 35.2118 8.34183C35.698 7.72736 36.2186 7.14404 36.7661 6.58402C36.7699 6.57624 36.7699 6.57626 36.7737 6.57626C36.8771 6.47126 36.9767 6.37013 37.08 6.27291C37.1068 6.2418 37.1336 6.21845 37.1604 6.19123C41.1188 2.35671 46.4859 0 52.3851 0C53.1508 0 53.9126 0.0427777 54.6591 0.120557C57.9781 0.466675 61.0751 1.55558 63.7894 3.22784C63.82 3.2434 63.8507 3.25895 63.8812 3.2784C63.8966 3.29006 63.9119 3.29785 63.9195 3.30562C63.9234 3.30951 63.9272 3.30952 63.931 3.30952C64.846 3.88119 65.7188 4.51898 66.538 5.21899C66.5419 5.22288 66.5457 5.22289 66.5495 5.22677C67.5908 6.11347 68.5479 7.0935 69.413 8.15908C69.5202 8.28743 69.6236 8.41963 69.7269 8.55182C69.7423 8.57515 69.7614 8.59854 69.7767 8.61796C69.9528 8.84743 70.1176 9.08075 70.2821 9.31406C70.3703 9.43851 70.4501 9.55911 70.5348 9.68356C72.2918 12.2619 73.5399 15.2292 74.1062 18.4376Z" fill="url(#paint0_linear_29:14)"/>
<path fill-rule="evenodd" clip-rule="evenodd" d="M84.7259 31.6329C84.7259 32.4185 84.098 33.0562 83.321 33.0562H71.5148C71.1284 33.0562 70.7798 33.2157 70.5229 33.4763C70.2667 33.7329 70.1134 34.0946 70.1134 34.4874C70.1134 34.8141 70.2247 35.1135 70.4081 35.3546C70.6608 35.6929 71.0633 35.9108 71.5148 35.9108H81.2882C79.4619 38.0924 76.7018 39.4614 73.689 39.4614H54.8773C54.9807 39.4497 55.0955 39.4458 55.2295 39.4458C61.5422 39.4458 62.4303 33.8652 64.1071 26.0872C64.9034 22.3771 67.1888 20.3977 69.3594 19.3437C70.8603 18.6204 72.4983 18.3209 74.1062 18.4415H74.1335C75.6686 18.6982 77.1078 19.0871 78.3748 19.8687C78.4553 19.9193 78.5393 19.9776 78.624 20.0321C78.7003 20.0826 78.7843 20.1449 78.8613 20.1993C78.876 20.211 78.8914 20.2227 78.9033 20.2304C79.4738 20.6505 80.0058 21.1287 80.4881 21.6499H74.8986C74.7418 21.6499 74.585 21.6771 74.4436 21.7316C74.2406 21.8015 74.0565 21.9182 73.9074 22.0699C73.6505 22.3265 73.4937 22.6844 73.4937 23.0771C73.4937 23.6722 73.8535 24.1777 74.3666 24.3955C74.5276 24.4655 74.711 24.5005 74.8986 24.5005H81.2042C81.977 24.5005 82.6091 25.1422 82.6091 25.9278C82.6091 26.7133 81.977 27.355 81.2042 27.355H80.2242C79.8413 27.3589 79.4927 27.5145 79.24 27.7712C78.9838 28.0278 78.8263 28.3895 78.8263 28.7823C78.8263 29.5679 79.4584 30.2056 80.2354 30.2056C82.4439 30.2173 83.5506 30.2212 83.5506 30.229C84.217 30.3378 84.7259 30.9251 84.7259 31.6329ZM69.0072 34.5263C69.0072 34.1179 68.8502 33.7562 68.59 33.4918C68.3258 33.2312 67.9659 33.064 67.5716 33.064C67.1773 33.064 66.8175 33.2312 66.5533 33.4918C66.2968 33.7562 66.1361 34.1179 66.1361 34.5263C66.1361 35.3274 66.7792 35.9846 67.5716 35.9846C67.9659 35.9846 68.3258 35.8174 68.59 35.5529C68.8502 35.2885 69.0072 34.9269 69.0072 34.5263ZM77.4445 28.7823C77.4445 27.9967 76.8208 27.3628 76.0508 27.355H71.8704C71.484 27.355 71.1284 27.5105 70.8757 27.7712C70.6188 28.0278 70.462 28.3895 70.462 28.7823C70.462 29.5679 71.0934 30.2056 71.8704 30.2056H76.0396C76.4302 30.2056 76.7788 30.0462 77.0308 29.7856C77.2835 29.529 77.4445 29.175 77.4445 28.7823Z" fill="url(#paint1_linear_29:14)"/>
<path d="M88.7145 31.7069C88.7145 32.5158 88.0719 33.1691 87.2753 33.1691C86.4829 33.1691 85.8396 32.5158 85.8396 31.7069C85.8396 30.9018 86.4829 30.2485 87.2753 30.2485C88.0719 30.2485 88.7145 30.9018 88.7145 31.7069Z" fill="url(#paint2_linear_29:14)"/>
<path d="M83.1565 25.8736C83.1565 25.4808 83.3133 25.123 83.566 24.8624C83.8222 24.6057 84.1743 24.4463 84.5614 24.4463H85.5071H86.7048C87.4783 24.4502 88.102 25.088 88.102 25.8736C88.102 26.2664 87.9452 26.6241 87.689 26.8808C87.4363 27.1375 87.0842 27.2969 86.6971 27.2969H84.5614C83.7844 27.2969 83.1565 26.6591 83.1565 25.8736Z" fill="url(#paint3_linear_29:14)"/>
<path d="M44.7555 28.2885C44.7555 29.7352 44.522 31.1313 44.0933 32.4341C44.0473 32.5664 44.0014 32.6986 43.9554 32.8347L43.944 32.8542C43.9363 32.8814 43.9248 32.9047 43.9172 32.9319C43.7756 33.313 43.6109 33.6864 43.4348 34.048L43.4195 34.0792L43.4004 34.1181C42.784 35.3664 41.9724 36.4942 41.0154 37.4703C40.9082 37.5793 40.7972 37.6881 40.6862 37.7931C40.6747 37.797 40.6708 37.8048 40.667 37.8126C40.644 37.832 40.6249 37.8515 40.602 37.8709C39.955 38.4737 39.2468 39.0065 38.4926 39.4654H30.2275C29.1977 39.4654 28.2024 39.3215 27.253 39.0531C23.4056 37.9798 20.3431 34.8725 19.4396 30.9097C19.4396 30.8941 19.4319 30.8746 19.4282 30.8591C19.409 30.758 19.3899 30.6491 19.3745 30.5441C19.3631 30.4896 19.3554 30.4352 19.344 30.3769C19.344 30.3691 19.3401 30.3574 19.3401 30.3458C19.3363 30.3263 19.3325 30.303 19.3286 30.2797C19.3286 30.2602 19.3248 30.2408 19.321 30.2213C19.321 30.2135 19.3171 30.2058 19.3171 30.2019C19.2329 29.5796 19.1832 28.9457 19.1832 28.2885C19.1832 27.8413 19.2023 27.3979 19.2482 26.9623C19.2597 26.8495 19.2674 26.7446 19.2865 26.6395C19.298 26.5462 19.3094 26.4568 19.321 26.3712C19.3363 26.2429 19.3631 26.1184 19.3784 25.9901C19.3975 25.8812 19.4167 25.7801 19.4396 25.6712C19.4588 25.5934 19.4741 25.5156 19.4933 25.434C19.4933 25.4107 19.5047 25.3873 19.5047 25.364C19.5315 25.2667 19.5544 25.1656 19.5813 25.0645C19.5813 25.0568 19.5813 25.0528 19.5851 25.0451C19.6158 24.9246 19.6464 24.8079 19.6846 24.6912C19.7038 24.6134 19.7268 24.5317 19.7535 24.4539L19.811 24.2634C19.811 24.2556 19.811 24.2556 19.8186 24.2479C19.8186 24.2362 19.8225 24.2245 19.8225 24.2167C19.8263 24.2129 19.8263 24.2128 19.8263 24.209C19.8722 24.0806 19.9182 23.9523 19.9603 23.8161C19.9718 23.7889 19.9833 23.7656 19.987 23.7462H19.9909V23.7423C19.9985 23.7229 20.0024 23.7073 20.0139 23.6879C20.1287 23.3768 20.2551 23.0656 20.3967 22.7623L20.4043 22.7584L20.4082 22.739V22.7311C20.4311 22.6922 20.4541 22.6533 20.4733 22.6106C20.5077 22.5406 20.5421 22.4822 20.5728 22.4161C20.5995 22.3578 20.6302 22.2956 20.6609 22.2411C20.6685 22.2217 20.6761 22.2023 20.6915 22.1828C20.7221 22.1206 20.7527 22.0623 20.7871 21.9961C21.0092 21.5762 21.258 21.1678 21.5298 20.7828C21.5298 20.7828 21.5298 20.7789 21.5337 20.7789C22.8429 18.9044 24.6307 17.3955 26.7171 16.4427H26.7209C27.9421 15.8749 29.2743 15.5132 30.6678 15.3655H30.6793C30.8438 15.346 31.0085 15.3382 31.173 15.3266C31.1769 15.3226 31.1807 15.3226 31.1884 15.3226C31.2037 15.3226 31.219 15.3226 31.2381 15.3188C31.3109 15.3149 31.3798 15.311 31.4525 15.311C31.6248 15.3032 31.7971 15.2993 31.9655 15.2993C32.1799 15.2993 32.3905 15.3032 32.6048 15.3149C33.0374 15.3382 33.47 15.381 33.8911 15.4471C34.6452 15.5599 35.3802 15.7465 36.0847 15.9916C38.9903 16.9871 41.4173 19.0171 42.964 21.6539C42.964 21.6578 42.9639 21.6578 42.9678 21.6578C43.2281 22.105 43.4654 22.5678 43.676 23.0539C44.3689 24.6523 44.7555 26.4256 44.7555 28.2885Z" fill="url(#paint4_linear_29:14)"/>
<path d="M74.1062 18.4378C74.1062 18.4378 74.1062 18.4378 74.1062 18.4416C72.4983 18.3211 70.8603 18.6244 69.3595 19.3439C67.1888 20.3978 64.9034 22.3773 64.1071 26.0874C62.4304 33.8653 61.5422 39.4421 55.2295 39.4421C55.0956 39.4421 54.9807 39.4499 54.8774 39.4655H38.4887C39.2812 38.9871 40.0162 38.427 40.6862 37.7931C40.7972 37.6882 40.9082 37.5793 41.0154 37.4704C41.9724 36.4942 42.784 35.3665 43.4004 34.1181L43.4042 34.1103C43.4118 34.0986 43.4157 34.0909 43.4195 34.0792L43.431 34.0481C43.6109 33.6864 43.7717 33.3131 43.9172 32.9319C43.9248 32.9048 43.9363 32.8814 43.944 32.8542L43.9516 32.8347C44.0014 32.6986 44.0473 32.5664 44.0894 32.4341L49.0355 20.4639L49.6824 18.8889L52.3086 12.5343C55.3482 2.7691 59.9421 0.217924 66.0825 4.88469C66.2394 5.00136 66.3887 5.11024 66.538 5.21914C66.5419 5.22303 66.5457 5.22303 66.5495 5.22692C67.5908 6.11361 68.5479 7.09364 69.413 8.15922C69.5203 8.28757 69.6236 8.41977 69.727 8.55197C69.7423 8.57529 69.7614 8.59869 69.7767 8.6181C69.9528 8.84758 70.1176 9.08089 70.2821 9.31421C70.3703 9.43865 70.4501 9.55926 70.5348 9.6837C72.2918 12.262 73.5399 15.2294 74.1062 18.4378Z" fill="url(#paint5_linear_29:14)"/>
<path d="M31.4525 15.311C29.3815 22.6651 25.358 26.2274 19.3784 25.9901C19.3975 25.8813 19.4205 25.7802 19.4396 25.6712C19.4587 25.5935 19.4741 25.5157 19.4894 25.4341C19.4933 25.4107 19.5009 25.3873 19.5047 25.364C19.5315 25.2668 19.5544 25.1618 19.5812 25.0646C19.5812 25.0568 19.5812 25.0529 19.5851 25.0452C19.6158 24.9245 19.6463 24.8079 19.6846 24.6873C19.7037 24.6134 19.7267 24.5318 19.7497 24.454L19.811 24.2634C19.811 24.2557 19.811 24.2557 19.8148 24.2479C19.8148 24.2324 19.8186 24.2245 19.8225 24.2168C19.8262 24.2129 19.8262 24.209 19.8262 24.209C19.8722 24.0807 19.9182 23.9523 19.9603 23.8201C19.9718 23.789 19.9833 23.7696 19.987 23.7462H19.9909V23.7423C19.9985 23.7228 20.0062 23.7073 20.01 23.6918C20.1287 23.3767 20.2588 23.0656 20.3967 22.7623L20.4005 22.7584L20.4082 22.7351V22.7312C20.4311 22.6923 20.4541 22.6534 20.4733 22.6068C20.5077 22.5406 20.5383 22.4784 20.5728 22.4162C20.5995 22.3579 20.6302 22.2956 20.657 22.2412H20.6609C20.6685 22.2218 20.6761 22.2023 20.6914 22.1829C20.7183 22.1206 20.7527 22.0623 20.7871 22C21.0092 21.5761 21.258 21.1678 21.5298 20.7828C21.5298 20.7828 21.5298 20.7789 21.5337 20.7789C22.839 18.9044 24.6307 17.3955 26.717 16.4427H26.7209C27.942 15.8749 29.2743 15.5133 30.6678 15.3655H30.6792C30.8438 15.346 31.0085 15.3383 31.1731 15.3266C31.1769 15.3227 31.1807 15.3227 31.1884 15.3227C31.2037 15.3227 31.219 15.3227 31.2381 15.3188C31.3109 15.3149 31.3798 15.311 31.4525 15.311Z" fill="url(#paint6_linear_29:14)"/>
<path d="M61.3508 27.3938L49.6824 18.8887L49.0355 20.4636L44.0894 32.4339C44.0474 32.5662 44.0014 32.6984 43.9516 32.8345L44.4761 31.6172C45.1077 30.1589 46.5625 29.2489 48.1205 29.3383L60.4474 30.015C61.0752 30.0539 61.6533 29.6611 61.8676 29.0544C61.8791 29.0077 61.8944 28.9572 61.9059 28.9105C62.0399 28.3428 61.8256 27.7399 61.3508 27.3938Z" fill="url(#paint7_linear_29:14)"/>
<path d="M41.0154 37.4699C40.9082 37.5789 40.7972 37.6877 40.6862 37.7927C40.6785 37.7966 40.6709 37.8044 40.6632 37.8122C39.5186 38.8933 37.9911 39.465 36.4253 39.465H36.3028L36.4943 40.7172L36.8044 42.7278C36.9001 43.3656 37.3977 43.8596 38.0255 43.9451C38.6534 44.0267 39.2621 43.6806 39.5147 43.0934L40.5369 40.7172L41.0805 39.465L43.2205 34.5299L43.2357 34.4949L43.4004 34.1177C42.784 35.366 41.9724 36.4938 41.0154 37.4699Z" fill="url(#paint8_linear_29:14)"/>
<path d="M49.6824 18.8888L49.0355 20.4638L44.0894 32.4341C44.0474 32.5663 44.0014 32.6985 43.9516 32.8346L43.944 32.8541L43.7908 33.208L43.4042 34.1102L43.4003 34.118C42.784 35.3663 41.9724 36.4942 41.0154 37.4703C40.9082 37.5792 40.7972 37.688 40.6862 37.7931C40.6785 37.7969 40.6708 37.8047 40.6632 37.8126C39.5186 38.8937 37.9911 39.4653 36.4253 39.4653H36.3029L35.9851 37.4197L32.601 15.3149L32.2756 13.1798L32.2641 13.1137L31.598 8.73857C31.5138 8.163 31.7741 7.59134 32.2641 7.28414C32.7503 6.98078 33.3705 7.0002 33.8337 7.34245L35.2118 8.34191L49.6709 18.881L49.6824 18.8888Z" fill="url(#paint9_linear_29:14)"/>
<path d="M44.7555 28.2885C44.7555 29.7352 44.522 31.1314 44.0932 32.4342C44.0472 32.5664 44.0013 32.6986 43.9554 32.8347L43.9439 32.8542L43.7908 33.2081L43.4195 34.0792L43.4003 34.1181C42.784 35.3665 41.9724 36.4943 41.0153 37.4704C40.9082 37.5793 40.7972 37.6881 40.6861 37.7932C40.6747 37.7971 40.6708 37.8048 40.667 37.8127C40.644 37.8321 40.6249 37.8515 40.6019 37.871C39.4611 38.9132 37.9605 39.4654 36.4215 39.4654H36.3028L35.9889 37.4198L32.6048 15.3149C33.0374 15.3383 33.47 15.3811 33.891 15.4471C34.6452 15.5599 35.3802 15.7466 36.0846 15.9916C38.9902 16.9872 41.4173 19.0172 42.9639 21.6539C42.9639 21.6578 42.9639 21.6578 42.9677 21.6578C43.228 22.1051 43.4654 22.5678 43.676 23.054C44.3688 24.6523 44.7555 26.4257 44.7555 28.2885Z" fill="url(#paint10_linear_29:14)"/>
</g>
<defs>
<linearGradient id="paint0_linear_29:14" x1="35.7489" y1="-11.8766" x2="60.1675" y2="-0.135709" gradientUnits="userSpaceOnUse">
<stop stop-color="#6B6F7B"/>
<stop offset="0.413" stop-color="#9BB1FF"/>
<stop offset="1" stop-color="#918FF5"/>
</linearGradient>
<linearGradient id="paint1_linear_29:14" x1="70.7644" y1="12.134" x2="87.9602" y2="26.6401" gradientUnits="userSpaceOnUse">
<stop stop-color="#C6CFEC"/>
<stop offset="0.505" stop-color="#7F88DA"/>
<stop offset="1" stop-color="#57559A"/>
</linearGradient>
<linearGradient id="paint2_linear_29:14" x1="69.6998" y1="13.232" x2="86.9722" y2="27.8026" gradientUnits="userSpaceOnUse">
<stop stop-color="#13359B"/>
<stop offset="0.505" stop-color="#6074BC"/>
<stop offset="1" stop-color="#C1BAEB"/>
</linearGradient>
<linearGradient id="paint3_linear_29:14" x1="67.2811" y1="12.8875" x2="90.3638" y2="24.7231" gradientUnits="userSpaceOnUse">
<stop stop-color="#103091"/>
<stop offset="0.505" stop-color="#6074BC"/>
<stop offset="1" stop-color="#CAD3F3"/>
</linearGradient>
<linearGradient id="paint4_linear_29:14" x1="15.5" y1="30.6697" x2="30.1157" y2="2.86482" gradientUnits="userSpaceOnUse">
<stop stop-color="#454996"/>
<stop offset="0.456" stop-color="#6074BC"/>
<stop offset="1" stop-color="#B1E1F4"/>
</linearGradient>
<linearGradient id="paint5_linear_29:14" x1="56.2551" y1="-1.02965" x2="104.15" y2="35.4274" gradientUnits="userSpaceOnUse">
<stop stop-color="#5B5998"/>
<stop offset="0.382" stop-color="#7B8DCF"/>
<stop offset="1" stop-color="#4F6F7C"/>
</linearGradient>
<linearGradient id="paint6_linear_29:14" x1="42.521" y1="19.0503" x2="-2.32377" y2="42.5514" gradientUnits="userSpaceOnUse">
<stop stop-color="#192C66"/>
<stop offset="0.561" stop-color="#AABCFF"/>
<stop offset="1" stop-color="#3BABD8"/>
</linearGradient>
<linearGradient id="paint7_linear_29:14" x1="44.7839" y1="16.4771" x2="103.212" y2="35.4906" gradientUnits="userSpaceOnUse">
<stop stop-color="#C2D1F8"/>
<stop offset="0.504" stop-color="#8EA0DE"/>
<stop offset="1" stop-color="#3AB5E6"/>
</linearGradient>
<linearGradient id="paint8_linear_29:14" x1="46.9464" y1="35.3625" x2="21.121" y2="66.0377" gradientUnits="userSpaceOnUse">
<stop stop-color="#8395CD"/>
<stop offset="0.413" stop-color="#6074BC"/>
<stop offset="1" stop-color="#3AB5E6"/>
</linearGradient>
<linearGradient id="paint9_linear_29:14" x1="61.6739" y1="20.787" x2="7.66467" y2="66.0522" gradientUnits="userSpaceOnUse">
<stop stop-color="#EFEBFF"/>
<stop offset="0.505" stop-color="#6074BC"/>
<stop offset="1" stop-color="#765EB0"/>
</linearGradient>
<linearGradient id="paint10_linear_29:14" x1="31.6003" y1="4.85048" x2="46.1003" y2="23.3031" gradientUnits="userSpaceOnUse">
<stop stop-color="#32308A"/>
<stop offset="0.999" stop-color="#3856BF" stop-opacity="0"/>
</linearGradient>
<clipPath id="clip0_29:14">
<rect width="105" height="64" fill="white"/>
</clipPath>
</defs>
</svg>
